<?xml version="1.0" encoding="utf-8"?>
<svg version="1.1" xmlns="http://www.w3.org/2000/svg" viewBox="0 0 32 32">
                        <g>
                            <g>
                                <path fill="#48296B" d="M17,8.1c1.6,0,3.2,0.5,4.4,1.7l-1.6,1.5c-0.7-0.9-1.7-1.4-2.8-1.4v5.2l0,0c2.6,0.7,4.8,1.5,4.8,4.5
			c0,2.7-2.2,4.4-4.8,4.5v1.6h-1.2v-1.6c-1.9,0-3.7-0.6-4.9-2.1l1.7-1.5c0.7,1.1,1.9,1.7,3.2,1.8V17c-2.4-0.6-4.5-1.7-4.5-4.5
			c0-2.5,2.1-4.1,4.5-4.3V6.5H17V8.1z M15.8,9.9c-1.4,0.2-2.4,1.1-2.4,2.5s1.1,2.1,2.4,2.4V9.9z M17,22.4c1.5-0.2,2.6-1.1,2.6-2.6
			c0-1.5-1.3-2.1-2.6-2.5V22.4z" />
                            </g>
                            <g>
                                <circle fill="none" stroke="#48286C" stroke-width="2" stroke-miterlimit="10" cx="16" cy="16" r="14" />
                            </g>
                        </g>
                </svg>