<?xml version="1.0" encoding="utf-8"?>
<svg xmlns="http://www.w3.org/2000/svg" version="1.1" viewBox="0 0 32 32">
                        <g>
                            <g>
                                <path fill="#48286C" d="M17.3,17v-0.8c1.4-1,2.3-2.8,2.3-4.4c0-2.4-1.9-4.3-4.3-4.3S11,9.5,11,11.8c0,1.6,0.9,3.5,2.3,4.4V17
						C9.5,17.4,9,19.9,9,19.9s0,2.4,0,3.3s0.8,1.2,0.8,1.2h10.9c0,0,0.8-0.2,0.8-1.2s0-3.3,0-3.3S21.1,17.4,17.3,17z" />
                                <g><path fill="#48286C" d="M20.5,14.4h1.7v-1.7h1v1.7H25v1h-1.7v1.7h-1v-1.7h-1.7V14.4z" /></g>
                            </g>
                            <circle fill="none" stroke="#48286C" stroke-width="2" stroke-miterlimit="10" cx="16" cy="16" r="14" />
                        </g>
                </svg>