<?xml version="1.0" encoding="utf-8"?>
<!-- Generator: Adobe Illustrator 18.1.1, SVG Export Plug-In . SVG Version: 6.00 Build 0)  -->
<svg version="1.1" id="Layer_1" xmlns="http://www.w3.org/2000/svg" xmlns:xlink="http://www.w3.org/1999/xlink" x="0px" y="0px"
	 viewBox="0 0 128 128" enable-background="new 0 0 128 128" xml:space="preserve">
<g>
	<g>
		<circle fill="none" stroke="#48286C" stroke-width="8.0714" stroke-miterlimit="10" cx="64.2" cy="63.8" r="56.5"/>
		<path fill="#48286C" d="M23.3,99.7H105c0,0-15.5,21-42,20.2S23.3,99.7,23.3,99.7z"/>
		<path fill="#48286C" d="M73.2,51.7c0.1-2.5-2.2-2.8-2.2-2.8s-5.9-0.5-6.6-0.1c-0.7,0.4-0.7,2.1-0.7,2.1h-1.3c-0.3-0.6-0.5-1-0.5-1
			S57.5,41.8,55,37s-5.7-4.5-5.7-4.5H18.4C8.2,43.4,10.3,49,7.8,64.5l32.7,0c0,0,7.2-0.4,0.9,5.9c-4,4.1-9.3,5.7-13.4,6.4
			c-1.2,0.3-2.4,0.4-3.6,0.4c-0.2,0-0.4,0-0.6,0c-0.2,0-0.4,0-0.6,0c-1.2,0-2.4-0.1-3.6-0.4c-3.7-0.6-8.2-2-12-5.1
			c1.2,11.8,8.8,20.6,8.8,20.6h40.2c0,0,0.2,3.2,0.6,3.7c0.7,0.9,12.4,0.7,13.3,0c0.8-0.7,2.5-27.8,0-30.5c-1.4-1.5-3.8-6-5.8-9.8
			c0.9,0,2-0.2,3.7-0.1C73.2,55.6,73.1,54.1,73.2,51.7z M10.1,53L17,37.4c0,0,31.4-0.7,32.8,0c1.4,0.7,11.5,15.1,7.1,15.6
			C51.7,53.5,10.1,53,10.1,53z M63,69.9c-6.3,1.4-19,3.2-16.8,0.6c0,0,8.3-9.8,14.5-7C62.7,64.4,70,68.3,63,69.9z"/>
	</g>
	<g>
		<path fill="#47286B" stroke="#FFFFFF" stroke-width="8.0714" stroke-miterlimit="10" d="M99.1,97.6c0,3.2-2.9,5.8-6.4,5.8h-29
			c-3.5,0-6.4-2.6-6.4-5.8c0,0,0.1-2,0.6-3.4c0.5-1.4,15.6-31.6,15.6-31.6c1.7-2.7,7.1-3.1,9,0c0,0,15.1,30.4,15.6,31.6
			S99.1,97.6,99.1,97.6z"/>
		<path fill="none" stroke="#47286B" stroke-width="4.0357" stroke-miterlimit="10" d="M102.6,99.2c0,3.7-3.3,6.8-7.4,6.8H61.4
			c-4.1,0-7.4-3-7.4-6.8c0,0,0.1-2.3,0.7-4c0.6-1.7,18.3-36.9,18.3-36.9c2.5-4.1,8.3-3.6,10.5,0c0,0,17.7,35.5,18.3,36.9
			C102.3,96.7,102.6,99.2,102.6,99.2z"/>
		<g>
			<path fill="#FFFFFF" d="M81.2,87.5h-6v-12h6V87.5z"/>
			<path fill="#FFFFFF" d="M81.2,95.1h-6v-4.8h6V95.1z"/>
		</g>
	</g>
</g>
</svg>
