<?xml version="1.0" encoding="utf-8"?>
<!-- Generator: Adobe Illustrator 19.2.1, SVG Export Plug-In . SVG Version: 6.00 Build 0)  -->
<svg version="1.1" id="Layer_1" xmlns="http://www.w3.org/2000/svg" xmlns:xlink="http://www.w3.org/1999/xlink" x="0px" y="0px"
	 viewBox="0 0 35 35" style="enable-background:new 0 0 35 35;" xml:space="preserve">
<style type="text/css">
	.st0{fill:none;stroke:#FFFFFF;stroke-width:2;stroke-miterlimit:10;}
	.st1{fill:#FFFFFF;}
	.st2{fill:none;stroke:#49286C;stroke-width:2;stroke-miterlimit:10;}
</style>
<circle class="st0" cx="17.5" cy="17.5" r="16"/>
<path class="st1" d="M8.7,25.1h17.6c1.1,0,2-0.9,2-2V11.9c0-1.1-0.9-2-2-2H8.7c-1.1,0-2,0.9-2,2v11.3C6.7,24.2,7.6,25.1,8.7,25.1z"
	/>
<path class="st2" d="M27.6,9.6c-2.9,2.8-5.8,5.6-8.6,8.4c-0.3,0.4-0.8,0.9-1.5,0.9c-0.7,0-1.3-0.6-1.5-0.8c-1.1-1.2-4.2-4.2-8.5-8.4
	"/>
<line class="st0" x1="14.7" y1="16.5" x2="14.7" y2="16.5"/>
</svg>
